<svg width="43" height="36" viewBox="0 0 43 36" fill="none" xmlns="http://www.w3.org/2000/svg">
<path d="M42.28 35.0979H26.04C24.4533 29.9645 23.66 24.6445 23.66 19.1379C23.66 13.5379 25.1067 9.10451 28 5.83784C30.9867 2.47785 35.3733 0.797852 41.16 0.797852V8.63785C36.4933 8.63785 34.16 11.4845 34.16 17.1779V19.8378H42.28V35.0979ZM18.62 35.0979H2.38C0.793333 29.9645 0 24.6445 0 19.1379C0 13.5379 1.44667 9.10451 4.34 5.83784C7.32667 2.47785 11.7133 0.797852 17.5 0.797852V8.63785C12.8333 8.63785 10.5 11.4845 10.5 17.1779V19.8378H18.62V35.0979Z" fill="#CBD5E1"/>
</svg>
