<svg width="40" height="41" viewBox="0 0 40 41" fill="none" xmlns="http://www.w3.org/2000/svg">
<g id="Group 50">
<circle id="Ellipse 73" cx="20" cy="20.439" r="20" fill="#442727"/>
<path id="Vector" d="M32 20.439C32 13.8115 26.6274 8.43896 20 8.43896C13.3726 8.43896 8 13.8115 8 20.439C8 26.4284 12.3882 31.393 18.125 32.2932V23.9077H15.0781V20.439H18.125V17.7952C18.125 14.7877 19.9166 13.1265 22.6576 13.1265C23.9701 13.1265 25.3438 13.3608 25.3438 13.3608V16.314H23.8306C22.34 16.314 21.875 17.239 21.875 18.189V20.439H25.2031L24.6711 23.9077H21.875V32.2932C27.6118 31.393 32 26.4284 32 20.439Z" fill="white"/>
</g>
</svg>
