<svg width="40" height="41" viewBox="0 0 40 41" fill="none" xmlns="http://www.w3.org/2000/svg">
<circle cx="20" cy="20.439" r="20" fill="#442727"/>
<g clip-path="url(#clip0_1_8641)">
<path d="M15.8 10.439H24.2C27.4 10.439 30 13.039 30 16.239V24.639C30 26.1772 29.3889 27.6525 28.3012 28.7402C27.2135 29.8279 25.7383 30.439 24.2 30.439H15.8C12.6 30.439 10 27.839 10 24.639V16.239C10 14.7007 10.6111 13.2255 11.6988 12.1377C12.7865 11.05 14.2617 10.439 15.8 10.439ZM15.6 12.439C14.6452 12.439 13.7295 12.8182 13.0544 13.4934C12.3793 14.1685 12 15.0842 12 16.039V24.839C12 26.829 13.61 28.439 15.6 28.439H24.4C25.3548 28.439 26.2705 28.0597 26.9456 27.3846C27.6207 26.7094 28 25.7937 28 24.839V16.039C28 14.049 26.39 12.439 24.4 12.439H15.6ZM25.25 13.939C25.5815 13.939 25.8995 14.0707 26.1339 14.3051C26.3683 14.5395 26.5 14.8574 26.5 15.189C26.5 15.5205 26.3683 15.8384 26.1339 16.0728C25.8995 16.3073 25.5815 16.439 25.25 16.439C24.9185 16.439 24.6005 16.3073 24.3661 16.0728C24.1317 15.8384 24 15.5205 24 15.189C24 14.8574 24.1317 14.5395 24.3661 14.3051C24.6005 14.0707 24.9185 13.939 25.25 13.939ZM20 15.439C21.3261 15.439 22.5979 15.9657 23.5355 16.9034C24.4732 17.8411 25 19.1129 25 20.439C25 21.765 24.4732 23.0368 23.5355 23.9745C22.5979 24.9122 21.3261 25.439 20 25.439C18.6739 25.439 17.4021 24.9122 16.4645 23.9745C15.5268 23.0368 15 21.765 15 20.439C15 19.1129 15.5268 17.8411 16.4645 16.9034C17.4021 15.9657 18.6739 15.439 20 15.439ZM20 17.439C19.2044 17.439 18.4413 17.755 17.8787 18.3176C17.3161 18.8803 17 19.6433 17 20.439C17 21.2346 17.3161 21.9977 17.8787 22.5603C18.4413 23.1229 19.2044 23.439 20 23.439C20.7956 23.439 21.5587 23.1229 22.1213 22.5603C22.6839 21.9977 23 21.2346 23 20.439C23 19.6433 22.6839 18.8803 22.1213 18.3176C21.5587 17.755 20.7956 17.439 20 17.439Z" fill="white"/>
</g>
<defs>
<clipPath id="clip0_1_8641">
<rect width="24" height="24" fill="white" transform="translate(8 8.43896)"/>
</clipPath>
</defs>
</svg>
