<svg width="40" height="41" viewBox="0 0 40 41" fill="none" xmlns="http://www.w3.org/2000/svg">
<g id="Group 51">
<circle id="Ellipse 72" cx="20" cy="20.439" r="20" fill="#442727"/>
<path id="Vector" d="M15.5502 29.9397C24.6045 29.9397 29.5583 22.4364 29.5583 15.9316C29.5583 15.7206 29.5536 15.505 29.5442 15.2941C30.5079 14.5972 31.3395 13.734 32 12.745C31.1025 13.1443 30.1496 13.4051 29.1739 13.5184C30.2013 12.9026 30.9705 11.9352 31.3391 10.7955C30.3726 11.3683 29.3156 11.7723 28.2134 11.9903C27.4708 11.2013 26.489 10.6788 25.4197 10.5037C24.3504 10.3287 23.2532 10.5107 22.2977 11.0218C21.3423 11.5328 20.5818 12.3444 20.1338 13.331C19.6859 14.3176 19.5754 15.4243 19.8195 16.48C17.8625 16.3818 15.9479 15.8734 14.2 14.9878C12.452 14.1022 10.9097 12.8591 9.67297 11.3392C9.0444 12.4229 8.85206 13.7053 9.13503 14.9258C9.418 16.1462 10.1551 17.2131 11.1964 17.9097C10.4146 17.8849 9.64998 17.6744 8.96563 17.2956V17.3566C8.96492 18.4938 9.3581 19.5963 10.0783 20.4765C10.7985 21.3567 11.8013 21.9603 12.9162 22.1847C12.1921 22.3828 11.432 22.4117 10.6948 22.2691C11.0095 23.2471 11.6216 24.1026 12.4458 24.716C13.27 25.3295 14.2651 25.6703 15.2923 25.6909C13.5484 27.0608 11.3942 27.8038 9.17656 27.8003C8.78329 27.7997 8.3904 27.7756 8 27.7281C10.2529 29.1734 12.8735 29.9411 15.5502 29.9397Z" fill="white"/>
</g>
</svg>
